<svg width="405" height="141" viewBox="0 0 405 141" fill="none" xmlns="http://www.w3.org/2000/svg">
<path d="M166.445 0C103.74 12.7389 56.8246 36.9415 19.2324 93.3299L27.1411 69.2571C27.3431 68.7311 27.4616 68.1691 27.4755 67.5711C27.5382 65.0276 25.7754 62.8877 23.4271 62.4914C23.3505 62.477 22.5701 62.4265 22.4725 62.4265H3.04586L2.35603 62.4337H2.34906C0.997276 62.2464 -0.0339826 61.0359 0.000857198 59.5876C0.000857198 59.321 0.0496329 59.0544 0.126281 58.8167C0.26564 58.3627 0.544358 57.9664 0.885789 57.6494L52.4627 7.88978C52.7971 7.57275 53.3894 7.11161 53.3894 7.1044C53.5497 6.97471 53.7657 6.92427 53.9817 6.92427C54.553 6.93868 55.006 7.42864 54.992 8.02668C54.992 8.14917 54.9711 8.22122 54.9502 8.31489L45.5156 37.9934C45.5156 37.9934 59.57 30.6873 74.1539 24.6565C79.0942 22.7543 84.9891 20.5639 92.0546 18.0276C117.453 8.90572 139.026 4.04937 166.445 0Z" fill="white"/>
<path d="M275.228 47.3459C276.357 48.5924 277.047 50.2712 277.047 52.123C277.047 53.492 275.835 56.3669 275.716 56.6551C275.716 56.6551 250.604 114.405 244.36 134.465C244.263 134.768 244.179 135.286 244.179 135.719C244.179 138.111 246.054 140.042 248.36 140.042H291.993C296.097 140.042 299.672 137.7 301.519 134.242C302.306 132.303 305.936 123.297 306.988 120.667C305.839 122.828 303.609 124.298 301.052 124.298H268.776L277.43 102.834C278.482 100.254 279.639 98.525 280.872 97.6387C282.113 96.7525 284.078 96.313 286.746 96.313H306.71C308.507 96.313 309.88 96.0103 310.842 95.3979C311.803 94.7854 312.591 93.6902 313.204 92.1051L317.51 81.5133H285.987L294.105 61.2737H321.022C323.656 61.2737 325.586 60.9206 326.826 60.2145C328.06 59.5156 329.063 58.2187 329.822 56.3165L333.585 47.3459H275.221H275.228ZM377.692 47.3459C370.864 47.3459 365.289 48.1096 360.983 49.63C356.677 51.1503 352.872 53.8162 349.577 57.6422C346.281 61.4682 342.616 67.2973 338.609 75.1222C334.812 82.5004 331.39 90.2605 328.338 98.3809C325.293 106.508 323.349 113.015 322.513 117.907C321.154 125.876 322.116 131.763 325.412 135.567C326.666 136.965 328.122 138.046 329.788 138.795C331.46 139.545 334.15 140.092 337.877 140.452C341.605 140.813 346.553 141 352.726 141C355.144 141 369.7 140.741 369.874 140.697C372.968 139.934 375.553 137.815 377.003 134.962C377.323 134.22 382.424 121.603 382.424 121.603C381.316 123.664 379.253 125.076 376.842 125.206L355.283 125.249C352.789 125.249 350.991 125.17 349.897 125.012C348.81 124.853 347.758 124.522 346.748 124.024C343.995 122.439 342.992 119.478 343.73 115.133C344.358 111.466 345.605 107.092 347.479 102.02C349.688 96.0031 351.778 90.7289 353.75 86.1967C355.729 81.6646 357.931 77.2982 360.356 73.0903C362.168 69.9128 363.882 67.5639 365.505 66.022C367.129 64.4872 369.017 63.4209 371.205 62.8372C373.386 62.2464 376.382 61.951 380.187 61.951H391.545C392.304 61.951 392.994 61.9294 393.635 61.8789C395.621 61.7492 397.07 61.389 398.011 60.827C399.028 60.2217 400.004 59.2994 400.84 57.6711C400.84 57.6711 400.84 57.6566 400.84 57.6494C401.021 57.2964 405 47.3459 405 47.3459H377.671H377.692Z" fill="white"/>
<path d="M188.38 51.7916C188.38 52.3752 188.254 52.93 188.031 53.4272C188.031 53.4416 187.753 53.9099 187.613 54.1405C187.613 54.1549 187.613 54.1621 187.592 54.1765C187.383 54.5224 133.57 140.539 133.57 140.539H116.108C115.767 140.539 115.014 140.503 114.77 140.488C112.854 140.179 111.363 138.521 111.251 136.482C111.237 131.986 120.282 82.976 120.282 82.976L84.5988 140.546H67.4019C67.3043 140.546 66.6842 140.525 66.4752 140.51C64.4614 140.236 62.8936 138.478 62.8518 136.331C62.8518 136.137 63.0051 134.386 63.1305 133.622L73.3316 73.8181C73.3316 73.8181 76.4811 58.2475 76.5578 54.8682C76.5578 51.2079 73.8473 48.2105 70.3911 47.8863H92.7722C93.0649 47.8863 93.3436 47.9223 93.6084 47.9872C95.2946 48.3835 96.5489 49.9326 96.5489 51.7988C96.5489 52.2383 96.521 52.3247 96.4792 52.5697L93.267 70.7847L86.0342 111.293L125.466 47.8935H145.29L134.573 110.752L167.162 55.6103C168.005 54.4431 168.507 52.9948 168.507 51.4169C168.507 50.1271 168.18 48.9239 167.594 47.8935H184.589C186.679 47.8935 188.373 49.6444 188.373 51.806L188.38 51.7916Z" fill="white"/>
<path d="M265.682 47.3459L262.289 55.7689C261.438 57.9376 260.414 59.4003 259.216 60.1497C258.017 60.899 256.164 61.4538 253.676 61.4538H237.65L209.708 130.747C209.45 131.403 208.127 134.76 208.127 136.036C208.127 137.527 208.579 138.918 209.346 140.042H191.355C189.271 140.042 187.571 138.291 187.571 136.129C187.571 135.546 187.899 134.674 188.059 134.213C194.581 115.645 217.415 61.2665 217.415 61.2665H200.991C198.699 61.2665 196.567 61.9942 194.811 63.2551C194.748 63.2912 194.706 63.32 194.692 63.3344L199.075 52.159C199.159 51.9717 199.242 51.7915 199.319 51.6114C199.41 51.4025 199.5 51.2007 199.605 50.999C200.594 49.1184 202.392 47.7566 204.503 47.4179C204.517 47.4179 205.207 47.3315 205.555 47.3315H265.689L265.682 47.3459Z" fill="white"/>
</svg>
